<?xml version="1.0" encoding="UTF-8" standalone="no"?>
<!-- Created with Inkscape (http://www.inkscape.org/) -->

<svg
   xmlns:dc="http://purl.org/dc/elements/1.1/"
   xmlns:cc="http://creativecommons.org/ns#"
   xmlns:rdf="http://www.w3.org/1999/02/22-rdf-syntax-ns#"
   xmlns:svg="http://www.w3.org/2000/svg"
   xmlns="http://www.w3.org/2000/svg"
   xmlns:sodipodi="http://sodipodi.sourceforge.net/DTD/sodipodi-0.dtd"
   xmlns:inkscape="http://www.inkscape.org/namespaces/inkscape"
   width="1024"
   height="768"
   viewBox="0 0 1024 768"
   id="svg4230"
   version="1.1"
   inkscape:version="0.91 r13725"
   sodipodi:docname="Logo Icon.svg"
   enable-background="new">
  <defs
     id="defs4232">
    <filter
       inkscape:collect="always"
       style="color-interpolation-filters:sRGB"
       id="filter4320">
      <feBlend
         inkscape:collect="always"
         mode="multiply"
         in2="BackgroundImage"
         id="feBlend4322" />
    </filter>
  </defs>
  <sodipodi:namedview
     id="base"
     pagecolor="#ffffff"
     bordercolor="#666666"
     borderopacity="1.0"
     inkscape:pageopacity="0.0"
     inkscape:pageshadow="2"
     inkscape:zoom="0.35503704"
     inkscape:cx="587.5425"
     inkscape:cy="104.3719"
     inkscape:document-units="px"
     inkscape:current-layer="layer2"
     showgrid="false"
     inkscape:window-width="1680"
     inkscape:window-height="987"
     inkscape:window-x="-8"
     inkscape:window-y="-8"
     inkscape:window-maximized="1"
     units="px"
     showguides="false"
     inkscape:guide-bbox="true"
     inkscape:object-paths="true"
     inkscape:object-nodes="true"
     inkscape:snap-text-baseline="false"
     inkscape:snap-bbox="true"
     inkscape:bbox-nodes="true"
     inkscape:snap-global="false">
    <inkscape:grid
       type="xygrid"
       id="grid4778"
       spacingx="1"
       spacingy="1"
       empspacing="1"
       empcolor="#9700ff"
       empopacity="0.25098039" />
    <sodipodi:guide
       position="100,700"
       orientation="1,0"
       id="guide7108" />
    <sodipodi:guide
       position="100,700"
       orientation="0,1"
       id="guide7110" />
    <sodipodi:guide
       position="700,700"
       orientation="1,0"
       id="guide7112" />
    <sodipodi:guide
       position="100,100"
       orientation="0,1"
       id="guide7114" />
    <sodipodi:guide
       position="400,400"
       orientation="1,0"
       id="guide7116" />
    <sodipodi:guide
       position="400,400"
       orientation="0,1"
       id="guide7118" />
    <sodipodi:guide
       position="500,400"
       orientation="1,0"
       id="guide7120" />
    <sodipodi:guide
       position="150,400"
       orientation="1,0"
       id="guide7122" />
    <sodipodi:guide
       position="650,400"
       orientation="1,0"
       id="guide7124" />
    <sodipodi:guide
       position="400,650"
       orientation="0,1"
       id="guide7126" />
    <sodipodi:guide
       position="400,150"
       orientation="0,1"
       id="guide7128" />
    <sodipodi:guide
       position="200,400"
       orientation="1,0"
       id="guide7130" />
    <sodipodi:guide
       position="600,400"
       orientation="1,0"
       id="guide7132" />
    <sodipodi:guide
       position="400,600"
       orientation="0,1"
       id="guide7134" />
    <sodipodi:guide
       position="400,200"
       orientation="0,1"
       id="guide7136" />
    <sodipodi:guide
       position="100,-140"
       orientation="0,1"
       id="guide7294" />
  </sodipodi:namedview>
  <metadata
     id="metadata4235">
    <rdf:RDF>
      <cc:Work
         rdf:about="">
        <dc:format>image/svg+xml</dc:format>
        <dc:type
           rdf:resource="http://purl.org/dc/dcmitype/StillImage" />
        <dc:title />
      </cc:Work>
    </rdf:RDF>
  </metadata>
  <g
     inkscape:label="Ozdje"
     inkscape:groupmode="layer"
     id="layer1"
     transform="translate(0,-284.36218)"
     style="opacity:0.97000002"
     sodipodi:insensitive="true" />
  <g
     inkscape:groupmode="layer"
     id="layer2"
     inkscape:label="Mobitel 480 x 320 (480 samo)"
     transform="translate(0,-312)"
     style="display:inline">
    <rect
       style="fill:#22002b;fill-opacity:1;stroke:#000000;stroke-width:5;stroke-linecap:round;stroke-linejoin:round;stroke-miterlimit:4;stroke-dasharray:none;stroke-dashoffset:0;stroke-opacity:1"
       id="rect7142"
       width="700"
       height="700"
       x="50"
       y="330"
       ry="50"
       rx="50" />
    <text
       xml:space="preserve"
       style="font-style:normal;font-weight:normal;font-size:15px;line-height:125%;font-family:sans-serif;letter-spacing:0px;word-spacing:0px;fill:#000000;fill-opacity:1;stroke:none;stroke-width:1px;stroke-linecap:butt;stroke-linejoin:miter;stroke-opacity:1"
       x="-1190"
       y="900"
       id="text5248"
       sodipodi:linespacing="125%"><tspan
         sodipodi:role="line"
         id="tspan5250"
         x="-1190"
         y="900" /></text>
    <rect
       style="display:inline;fill:#d7d7f4;fill-opacity:1;stroke:#000000;stroke-width:5;stroke-linecap:round;stroke-linejoin:round;stroke-miterlimit:4;stroke-dasharray:none;stroke-dashoffset:0;stroke-opacity:1"
       id="rect7142-3"
       width="600"
       height="600"
       x="100"
       y="380"
       ry="50"
       rx="50" />
    <g
       id="g7247">
      <path
         sodipodi:nodetypes="cccccccc"
         inkscape:connector-curvature="0"
         id="path7138"
         d="m 170,760 c -90,-30 -80,-160 0,-190 -40,-80 30,-130 90,-110 40,-80 240,-80 300,-30 140,-50 150,110 100,150 70,90 20,300 -60,300 0,100 -250,100 -290,50 -90,50 -210,-50 -140,-170 z"
         style="fill:#800080;fill-opacity:1;fill-rule:evenodd;stroke:#000000;stroke-width:5;stroke-linecap:round;stroke-linejoin:round;stroke-miterlimit:4;stroke-dasharray:none;stroke-opacity:1" />
      <path
         sodipodi:nodetypes="cccccc"
         inkscape:connector-curvature="0"
         id="path7140"
         d="m 160,960 c -10,10 -30,10 -40,0 -10,-10 -10,-30 10,-30 0,-20 40,-20 50,0 20,-10 40,30 10,30 10,10 -20,10 -30,0 z"
         style="fill:#800080;fill-opacity:1;fill-rule:evenodd;stroke:#000000;stroke-width:5;stroke-linecap:round;stroke-linejoin:round;stroke-miterlimit:4;stroke-dasharray:none;stroke-opacity:1" />
    </g>
    <path
       style="fill:#ffffff;fill-opacity:1;fill-rule:evenodd;stroke:#000000;stroke-width:5;stroke-linecap:round;stroke-linejoin:round;stroke-miterlimit:4;stroke-dasharray:none;stroke-opacity:1"
       d="m 380,580 c 77.43415,39.06629 45.93126,193.71338 -10,260 -41.73793,49.46548 -150.45512,91.23565 -190,40 -18.21648,-23.60188 12.98379,-67.38995 40,-80 65.20372,-30.43441 157.76653,99.49184 210,50 81.15816,-76.89833 47.21054,-298.28406 -60,-330 -74.62072,-22.07494 -203.1154,105.21869 -160,170 31.55917,47.41796 113.1831,-92.44414 160,-60 10.95901,7.5946 7.98796,29.32431 0,40 -35.38673,47.29342 -141.31462,101.63369 -170,50 -50,-90 77.32374,-220 170,-220 130,0 210,210 90,350 -50.31664,58.70275 -158.75098,-60.02257 -230,-30 -15.35882,6.47182 -39.3273,26.18771 -30,40 28.95972,42.88487 120.55695,2.55449 150,-40 38.12106,-55.09695 50,-140 -20,-200 -16.20538,-13.89033 30.94407,-49.6139 50,-40 z"
       id="path7144"
       inkscape:connector-curvature="0"
       sodipodi:nodetypes="aaaaaaaaasssaaasa" />
    <g
       id="g7165">
      <path
         inkscape:connector-curvature="0"
         id="path7161"
         d="M 514.85913,648.01421 C 520.88225,646.46298 526.09689,643.90311 530,640 c 20,-20 24.20526,-48.59825 -10,-60 -30,-10 0,-20 10,-20 40,0 44.58545,71.56091 20,90 -9.82408,7.36806 -20.94338,12.6615 -32.40357,15.92744 -0.89699,-6.27119 -1.53428,-13.47819 -2.7373,-17.91323 z m -44.20847,19.96152 C 452.77378,664.17759 437.68892,654.77659 430,640 c -21.37553,-41.07957 30,-90 70,-120 43.97979,-32.98484 99.40356,-4.70178 150,-30 40,-20 30,0 10.04179,20.95403 C 606.57171,567.09202 551.23903,510.0922 510,540 c -27.78179,20.1482 -65.26344,59.26231 -50,90 0.75538,1.52119 1.67882,2.96162 2.74842,4.31879 3.40807,10.31599 6.46607,21.0404 7.90224,33.65694 z"
         style="fill:#ffffff;fill-opacity:1;fill-rule:evenodd;stroke:#000000;stroke-width:5;stroke-linecap:round;stroke-linejoin:round;stroke-miterlimit:4;stroke-dasharray:none;stroke-opacity:1"
         sodipodi:nodetypes="csssscccssssascc" />
      <path
         inkscape:connector-curvature="0"
         id="path7163"
         d="m 630,560 c 60,70 27.33665,193.16455 -20,270 -30.58484,49.64441 -95.31238,110.23027 -150,90 -9.88618,-3.65713 -13.88587,-20.20147 -10,-30 18.14332,-45.74978 100.52257,-30.58803 130,-70 38.76431,-51.82873 70,-130 40,-190 C 601.56091,593.12182 568.76255,604.07512 571.83359,580.09183 576.42476,544.23718 609.42017,535.9902 630,560 Z"
         style="fill:#ffffff;fill-opacity:1;fill-rule:evenodd;stroke:#000000;stroke-width:5;stroke-linecap:round;stroke-linejoin:round;stroke-miterlimit:4;stroke-dasharray:none;stroke-opacity:1"
         sodipodi:nodetypes="saaaasss" />
    </g>
  </g>
  <g
     inkscape:groupmode="layer"
     id="layer3"
     inkscape:label="Tablica Desktop 1024 x 768 (864 samo)"
     transform="translate(0,-312)"
     style="display:none;filter:url(#filter4320)"
     sodipodi:insensitive="true">
    <g
       id="g7191" />
  </g>
  <g
     inkscape:groupmode="layer"
     id="layer4"
     inkscape:label="Tablica Desktop 1920 x 1080 (1344 samo) 1"
     style="display:none"
     sodipodi:insensitive="true" />
</svg>
