<?xml version="1.0" encoding="UTF-8" standalone="no"?>
<svg
   xmlns:dc="http://purl.org/dc/elements/1.1/"
   xmlns:cc="http://creativecommons.org/ns#"
   xmlns:rdf="http://www.w3.org/1999/02/22-rdf-syntax-ns#"
   xmlns:svg="http://www.w3.org/2000/svg"
   xmlns="http://www.w3.org/2000/svg"
   xmlns:sodipodi="http://sodipodi.sourceforge.net/DTD/sodipodi-0.dtd"
   xmlns:inkscape="http://www.inkscape.org/namespaces/inkscape"
   version="1.1"
   id="svg4230"
   viewBox="0 0 64 64"
   height="64"
   width="64"
   inkscape:version="0.91 r13725"
   sodipodi:docname="logo_icon.svg"
   style="enable-background:new">
  <sodipodi:namedview
     pagecolor="#ffffff"
     bordercolor="#666666"
     borderopacity="1"
     objecttolerance="10"
     gridtolerance="10"
     guidetolerance="10"
     inkscape:pageopacity="0"
     inkscape:pageshadow="2"
     inkscape:window-width="1680"
     inkscape:window-height="987"
     id="namedview23"
     showgrid="true"
     inkscape:object-paths="true"
     inkscape:object-nodes="true"
     inkscape:snap-bbox="true"
     inkscape:zoom="1.7383042"
     inkscape:cx="81.84847"
     inkscape:cy="119.91618"
     inkscape:window-x="-8"
     inkscape:window-y="-8"
     inkscape:window-maximized="1"
     inkscape:current-layer="svg4230">
    <inkscape:grid
       type="xygrid"
       id="grid4151" />
  </sodipodi:namedview>
  <defs
     id="defs4232">
    <filter
       id="filter4320"
       style="color-interpolation-filters:sRGB">
      <feBlend
         id="feBlend4322"
         in2="BackgroundImage"
         mode="multiply" />
    </filter>
  </defs>
  <metadata
     id="metadata4235">
    <rdf:RDF>
      <cc:Work
         rdf:about="">
        <dc:format>image/svg+xml</dc:format>
        <dc:type
           rdf:resource="http://purl.org/dc/dcmitype/StillImage" />
        <dc:title></dc:title>
      </cc:Work>
    </rdf:RDF>
  </metadata>
  <g
     style="opacity:0.97000002"
     transform="translate(0,-988.36218)"
     id="layer1" />
  <g
     style="display:inline"
     transform="matrix(0.07857143,0,0,0.07857143,1.0714275,-21.928573)"
     id="layer2">
    <rect
       rx="50"
       ry="50"
       y="330"
       x="50"
       height="700"
       width="700"
       id="rect7142"
       style="fill:#22002b;fill-opacity:1;stroke:#000000;stroke-width:5;stroke-linecap:round;stroke-linejoin:round;stroke-miterlimit:4;stroke-dasharray:none;stroke-dashoffset:0;stroke-opacity:1" />
    <text
       id="text5248"
       y="900"
       x="-1190"
       style="font-style:normal;font-weight:normal;font-size:15px;line-height:125%;font-family:sans-serif;letter-spacing:0px;word-spacing:0px;fill:#000000;fill-opacity:1;stroke:none;stroke-width:1px;stroke-linecap:butt;stroke-linejoin:miter;stroke-opacity:1"
       xml:space="preserve"
       sodipodi:linespacing="125%"><tspan
         y="900"
         x="-1190"
         id="tspan5250" /></text>
    <rect
       rx="50"
       ry="50"
       y="380"
       x="100"
       height="600"
       width="600"
       id="rect7142-3"
       style="display:inline;fill:#d7d7f4;fill-opacity:1;stroke:#000000;stroke-width:5;stroke-linecap:round;stroke-linejoin:round;stroke-miterlimit:4;stroke-dasharray:none;stroke-dashoffset:0;stroke-opacity:1" />
    <g
       id="g7247">
      <path
         style="fill:#800080;fill-opacity:1;fill-rule:evenodd;stroke:#000000;stroke-width:5;stroke-linecap:round;stroke-linejoin:round;stroke-miterlimit:4;stroke-dasharray:none;stroke-opacity:1"
         d="m 170,760 c -90,-30 -80,-160 0,-190 -40,-80 30,-130 90,-110 40,-80 240,-80 300,-30 140,-50 150,110 100,150 70,90 20,300 -60,300 0,100 -250,100 -290,50 -90,50 -210,-50 -140,-170 z"
         id="path7138"
         inkscape:connector-curvature="0" />
      <path
         style="fill:#800080;fill-opacity:1;fill-rule:evenodd;stroke:#000000;stroke-width:5;stroke-linecap:round;stroke-linejoin:round;stroke-miterlimit:4;stroke-dasharray:none;stroke-opacity:1"
         d="m 160,960 c -10,10 -30,10 -40,0 -10,-10 -10,-30 10,-30 0,-20 40,-20 50,0 20,-10 40,30 10,30 10,10 -20,10 -30,0 z"
         id="path7140"
         inkscape:connector-curvature="0" />
    </g>
    <path
       id="path7144"
       d="m 380,580 c 77.43415,39.06629 45.93126,193.71338 -10,260 -41.73793,49.46548 -150.45512,91.23565 -190,40 -18.21648,-23.60188 12.98379,-67.38995 40,-80 65.20372,-30.43441 157.76653,99.49184 210,50 81.15816,-76.89833 47.21054,-298.28406 -60,-330 -74.62072,-22.07494 -203.1154,105.21869 -160,170 31.55917,47.41796 113.1831,-92.44414 160,-60 10.95901,7.5946 7.98796,29.32431 0,40 -35.38673,47.29342 -141.31462,101.63369 -170,50 -50,-90 77.32374,-220 170,-220 130,0 210,210 90,350 -50.31664,58.70275 -158.75098,-60.02257 -230,-30 -15.35882,6.47182 -39.3273,26.18771 -30,40 28.95972,42.88487 120.55695,2.55449 150,-40 38.12106,-55.09695 50,-140 -20,-200 -16.20538,-13.89033 30.94407,-49.6139 50,-40 z"
       style="fill:#ffffff;fill-opacity:1;fill-rule:evenodd;stroke:#000000;stroke-width:5;stroke-linecap:round;stroke-linejoin:round;stroke-miterlimit:4;stroke-dasharray:none;stroke-opacity:1"
       inkscape:connector-curvature="0" />
    <g
       id="g7165">
      <path
         style="fill:#ffffff;fill-opacity:1;fill-rule:evenodd;stroke:#000000;stroke-width:5;stroke-linecap:round;stroke-linejoin:round;stroke-miterlimit:4;stroke-dasharray:none;stroke-opacity:1"
         d="M 514.85913,648.01421 C 520.88225,646.46298 526.09689,643.90311 530,640 c 20,-20 24.20526,-48.59825 -10,-60 -30,-10 0,-20 10,-20 40,0 44.58545,71.56091 20,90 -9.82408,7.36806 -20.94338,12.6615 -32.40357,15.92744 -0.89699,-6.27119 -1.53428,-13.47819 -2.7373,-17.91323 z m -44.20847,19.96152 C 452.77378,664.17759 437.68892,654.77659 430,640 c -21.37553,-41.07957 30,-90 70,-120 43.97979,-32.98484 99.40356,-4.70178 150,-30 40,-20 30,0 10.04179,20.95403 C 606.57171,567.09202 551.23903,510.0922 510,540 c -27.78179,20.1482 -65.26344,59.26231 -50,90 0.75538,1.52119 1.67882,2.96162 2.74842,4.31879 3.40807,10.31599 6.46607,21.0404 7.90224,33.65694 z"
         id="path7161"
         inkscape:connector-curvature="0" />
      <path
         style="fill:#ffffff;fill-opacity:1;fill-rule:evenodd;stroke:#000000;stroke-width:5;stroke-linecap:round;stroke-linejoin:round;stroke-miterlimit:4;stroke-dasharray:none;stroke-opacity:1"
         d="m 630,560 c 60,70 27.33665,193.16455 -20,270 -30.58484,49.64441 -95.31238,110.23027 -150,90 -9.88618,-3.65713 -13.88587,-20.20147 -10,-30 18.14332,-45.74978 100.52257,-30.58803 130,-70 38.76431,-51.82873 70,-130 40,-190 C 601.56091,593.12182 568.76255,604.07512 571.83359,580.09183 576.42476,544.23718 609.42017,535.9902 630,560 Z"
         id="path7163"
         inkscape:connector-curvature="0" />
    </g>
  </g>
  <g
     style="display:none;filter:url(#filter4320)"
     transform="translate(0,-1016)"
     id="layer3">
    <g
       id="g7191" />
  </g>
  <g
     style="display:none"
     id="layer4"
     transform="translate(0,-704)" />
</svg>
